<?xml version="1.0" standalone="no"?>
<!DOCTYPE svg PUBLIC "-//W3C//DTD SVG 20010904//EN"
 "http://www.w3.org/TR/2001/REC-SVG-20010904/DTD/svg10.dtd">
<svg version="1.0" xmlns="http://www.w3.org/2000/svg"
 width="128.000000pt" height="128.000000pt" viewBox="0 0 128.000000 128.000000"
 preserveAspectRatio="xMidYMid meet">
<metadata>
Created by potrace 1.13, written by Peter Selinger 2001-2015
</metadata>
<g transform="translate(0.000000,128.000000) scale(0.100000,-0.100000)"
fill="gray" stroke="none">
<path d="M522 1097 c-91 -91 -106 -119 -80 -145 22 -22 43 -13 93 38 27 28 53
50 57 50 4 0 8 -144 8 -320 0 -309 1 -320 20 -330 14 -8 26 -8 40 0 19 10 20
21 20 330 0 176 4 320 8 320 4 0 30 -22 57 -50 50 -51 71 -60 93 -38 26 26 11
54 -81 146 -67 67 -99 92 -117 92 -19 0 -50 -25 -118 -93z"/>
<path d="M282 827 c-22 -23 -22 -27 -22 -358 l0 -336 23 -21 c23 -22 28 -22
358 -22 l336 0 21 23 c22 23 22 28 22 358 l0 336 -23 21 c-21 19 -34 22 -120
22 -95 0 -97 0 -103 -25 -11 -43 10 -55 92 -55 l74 0 0 -300 0 -300 -300 0
-300 0 0 300 0 299 76 3 c60 2 79 7 88 21 8 12 8 22 0 35 -9 14 -28 18 -106
20 -87 2 -95 1 -116 -21z"/>
</g>
</svg>
