<?xml version="1.0"?>
<svg xmlns="http://www.w3.org/2000/svg" viewBox="0 0 24 24">
    <path fill="gray" d="M 6 2 C 4.3 2 3 3.3 3 5 L 3 19 C 3 20.7 4.3 22 6 22 L 10 22 L 10 20 L 6 20 C 5.4 20 5 19.6 5 19 L 5 5 C 5 4.4 5.4 4 6 4 L 16 4 C 16.6 4 17 4.4 17 5 L 17 12.59375 L 19 10.59375 L 19 5 C 19 3.3 17.7 2 16 2 L 6 2 z M 20.1875 12 C 20.0875 12 19.9125 12.0875 19.8125 12.1875 L 19 13 L 21 15 L 21.8125 14.1875 C 22.0125 13.9875 22.0125 13.6 21.8125 13.5 L 20.5 12.1875 C 20.5 11.9875 20.2875 12 20.1875 12 z M 18.5 13.5 L 12 20 L 12 22 L 14 22 L 20.5 15.5 L 18.5 13.5 z"/>
</svg>
