<?xml version="1.0" encoding="UTF-8" ?>
<!DOCTYPE svg PUBLIC "-//W3C//DTD SVG 1.1//EN" "http://www.w3.org/Graphics/SVG/1.1/DTD/svg11.dtd">
<svg width="44pt" height="43pt" viewBox="0 0 44 43" version="1.1" xmlns="http://www.w3.org/2000/svg">
<path class="menu2path" fill="#252530" stroke="#252530" stroke-width="0.09375" opacity="1.00" d=" M 0.0 0.0 L 44.0 0.0 L 44.0 43.0 L 0.0 43.0 L 0.0 0.0 Z" />
<path class="menu1path" fill="#cccccc" stroke="#cccccc" stroke-width="0.09375" opacity="1.00" d=" M 15.4 1.7 C 21.5 -0.4 28.6 0.5 33.8 4.2 C 39.0 7.7 42.5 13.7 42.8 20.0 C 43.3 26.8 40.2 33.7 34.7 37.8 C 29.3 42.1 21.6 43.2 15.1 40.8 C 7.0 38.0 1.1 29.7 1.4 21.0 C 1.3 12.5 7.3 4.4 15.4 1.7 Z" />
<path class="menu2path" fill="#252530" stroke="#252530" stroke-width="0.09375" opacity="1.00" d=" M 17.4 2.5 C 28.3 -0.6 40.4 7.8 41.4 19.0 C 43.0 29.8 33.8 40.5 23.0 40.6 C 13.3 41.3 4.1 33.6 3.0 24.0 C 1.4 14.5 8.1 4.7 17.4 2.5 Z" />
<path class="menu1path" fill="#cccccc" stroke="#cccccc" stroke-width="0.09375" opacity="1.00" d=" M 15.9 18.4 C 16.6 16.5 17.0 14.1 19.1 13.2 C 22.3 11.6 27.8 12.9 28.2 17.1 C 28.3 20.5 25.0 22.5 23.2 25.0 C 22.4 25.1 21.0 25.3 20.3 25.4 C 19.8 21.5 26.1 19.8 23.9 16.0 C 20.5 13.7 19.6 19.9 15.9 18.4 Z" />
<path class="menu1path" fill="#cccccc" stroke="#cccccc" stroke-width="0.09375" opacity="1.00" d=" M 20.4 26.9 C 21.6 26.9 22.8 26.9 24.0 26.9 C 24.0 27.7 24.0 29.5 24.0 30.3 C 23.1 30.3 21.4 30.3 20.5 30.3 C 20.5 29.2 20.4 28.0 20.4 26.9 Z" />
</svg>
