<?xml version="1.0" encoding="UTF-8" ?>
<!DOCTYPE svg PUBLIC "-//W3C//DTD SVG 1.1//EN" "http://www.w3.org/Graphics/SVG/1.1/DTD/svg11.dtd">
<svg width="43pt" height="44pt" viewBox="0 0 43 44" version="1.1" xmlns="http://www.w3.org/2000/svg">
<path class="menu2path" fill="#252530" stroke="#252530" stroke-width="0.09375" opacity="1.00" d=" M 0.0 0.0 L 43.0 0.0 L 43.0 44.0 L 0.0 44.0 L 0.0 0.0 Z" />
<path class="menu1path" fill="#cccccc" stroke="#cccccc" stroke-width="0.09375" opacity="1.00" d=" M 15.3 2.5 C 25.2 -0.8 36.9 4.6 40.7 14.3 C 44.1 22.2 41.9 31.9 35.6 37.6 C 30.9 42.0 24.2 43.9 18.0 42.7 C 9.3 41.4 2.0 33.8 1.0 25.0 C -0.5 15.4 6.0 5.3 15.3 2.5 Z" />
<path class="menu2path" fill="#252530" stroke="#252530" stroke-width="0.09375" opacity="1.00" d=" M 19.1 3.1 C 25.2 2.2 31.7 4.6 35.8 9.2 C 41.8 15.3 42.6 25.7 37.8 32.8 C 34.1 38.7 27.0 42.2 20.1 41.6 C 10.3 41.1 1.8 31.9 2.3 22.1 C 2.1 12.7 9.8 4.1 19.1 3.1 Z" />
<path class="menu1path" fill="#cccccc" stroke="#cccccc" stroke-width="0.09375" opacity="1.00" d=" M 17.3 14.6 C 18.7 12.9 20.1 11.2 21.6 9.5 C 23.0 11.2 24.4 12.9 25.9 14.6 C 25.2 14.6 23.8 14.6 23.1 14.6 C 23.0 16.7 23.0 18.7 23.0 20.7 C 25.0 20.8 27.1 20.8 29.1 20.7 C 29.1 20.0 29.1 18.7 29.2 18.0 C 30.9 19.4 32.7 20.9 34.4 22.3 C 32.7 23.7 30.9 25.2 29.1 26.6 C 29.1 25.9 29.2 24.5 29.2 23.8 C 27.1 23.7 25.1 23.7 23.1 23.7 C 23.0 25.8 23.0 27.9 23.1 29.9 C 23.8 29.9 25.2 29.9 26.0 29.9 C 24.4 31.6 23.0 33.3 21.6 35.1 C 20.1 33.3 18.7 31.6 17.1 29.9 C 17.9 29.9 19.3 29.9 20.0 29.9 C 20.0 27.8 20.0 25.8 20.0 23.8 C 18.0 23.7 16.0 23.7 14.0 23.8 C 13.9 24.4 13.9 25.8 13.8 26.5 C 12.1 25.1 10.4 23.7 8.7 22.2 C 10.5 20.9 12.1 19.5 13.8 18.1 C 13.8 18.7 13.9 20.1 13.9 20.7 C 15.9 20.7 18.0 20.8 20.0 20.8 C 20.0 18.7 20.1 16.7 20.1 14.6 C 19.4 14.6 18.0 14.6 17.3 14.6 Z" />
</svg>
