<?xml version="1.0" encoding="UTF-8" ?>
<!DOCTYPE svg PUBLIC "-//W3C//DTD SVG 1.1//EN" "http://www.w3.org/Graphics/SVG/1.1/DTD/svg11.dtd">
<svg width="44pt" height="43pt" viewBox="0 0 44 43" version="1.1" xmlns="http://www.w3.org/2000/svg">
<path class="menu2path" fill="#252530" stroke="#252530" stroke-width="0.09375" opacity="1.00" d=" M 0.0 0.0 L 44.0 0.0 L 44.0 43.0 L 0.0 43.0 L 0.0 0.0 Z" />
<path class="menu1path" fill="#cccccc" stroke="#cccccc" stroke-width="0.09375" opacity="1.00" d=" M 16.3 1.3 C 22.2 -0.3 28.8 0.7 33.7 4.3 C 39.2 8.0 42.7 14.4 42.7 21.0 C 42.8 28.2 39.0 35.2 32.9 38.9 C 26.1 43.3 16.5 43.1 9.9 38.2 C 4.1 34.1 0.7 27.0 1.3 20.0 C 1.6 11.4 8.1 3.6 16.3 1.3 Z" />
<path class="menu2path" fill="#252530" stroke="#252530" stroke-width="0.09375" opacity="1.00" d=" M 17.3 2.5 C 28.2 -0.5 40.1 7.8 41.2 18.9 C 43.0 30.4 32.6 41.5 21.1 40.6 C 9.8 40.5 0.5 29.0 2.8 18.0 C 4.0 10.5 10.0 4.2 17.3 2.5 Z" />
<path class="menu1path" fill="#cccccc" stroke="#cccccc" stroke-width="0.09375" opacity="1.00" d=" M 21.0 10.3 C 21.7 10.4 22.5 10.5 23.2 10.5 C 23.6 11.7 24.1 12.9 24.5 14.1 C 26.0 13.7 27.4 13.3 28.9 12.9 C 29.3 13.3 30.0 14.1 30.4 14.5 C 29.9 15.7 29.3 16.9 28.8 18.1 C 30.1 18.8 31.4 19.5 32.8 20.2 C 32.8 20.7 32.7 21.7 32.7 22.2 C 31.7 22.7 30.7 23.3 29.8 23.9 C 28.6 25.2 30.0 26.9 30.2 28.3 C 29.9 28.6 29.3 29.2 29.0 29.6 C 27.7 29.3 26.4 28.8 25.1 28.6 C 24.0 30.1 23.0 31.8 21.2 32.6 C 20.3 31.2 20.2 28.8 18.1 28.6 C 17.1 29.0 16.0 29.3 15.0 29.7 C 14.7 29.3 14.0 28.6 13.7 28.3 C 13.9 27.4 14.4 25.7 14.7 24.8 C 14.1 23.4 12.4 23.1 11.2 22.4 C 11.2 21.9 11.1 20.9 11.1 20.5 C 12.3 19.7 13.6 19.1 14.7 18.1 C 14.4 17.2 13.9 15.5 13.6 14.6 C 13.9 14.2 14.6 13.4 14.9 13.0 C 16.3 13.2 17.9 14.4 19.4 13.5 C 19.9 12.5 20.5 11.4 21.0 10.3 Z" />
<path class="menu2path" fill="#252530" stroke="#252530" stroke-width="0.09375" opacity="1.00" d=" M 20.2 18.2 C 23.1 16.6 26.7 20.0 24.9 22.9 C 23.9 25.3 20.0 25.4 19.0 22.9 C 17.9 21.4 18.8 19.2 20.2 18.2 Z" />
</svg>
