<?xml version="1.0" encoding="UTF-8" ?>
<!DOCTYPE svg PUBLIC "-//W3C//DTD SVG 1.1//EN" "http://www.w3.org/Graphics/SVG/1.1/DTD/svg11.dtd">
<svg width="45pt" height="45pt" viewBox="0 0 45 45" version="1.1" xmlns="http://www.w3.org/2000/svg">
<path class="menu2path" fill="#252530" stroke="#252530" stroke-width="0.09375" opacity="1.00" d=" M 0.0 0.0 L 45.0 0.0 L 45.0 18.5 C 42.6 11.0 37.1 4.0 29.2 1.8 C 18.2 -1.7 5.5 5.3 2.3 16.3 C -0.6 24.8 2.7 34.8 9.9 40.2 C 16.5 45.4 26.4 46.1 33.8 41.9 C 39.6 38.7 43.3 32.8 45.0 26.5 L 45.0 45.0 L 0.0 45.0 L 0.0 0.0 Z" />
<path class="menu1path" fill="#7778c7" stroke="#7778c7" stroke-width="0.09375" opacity="1.00" d=" M 2.3 16.3 C 5.5 5.3 18.2 -1.7 29.2 1.8 C 37.1 4.0 42.6 11.0 45.0 18.5 L 45.0 26.5 C 43.3 32.8 39.6 38.7 33.8 41.9 C 26.4 46.1 16.5 45.4 9.9 40.2 C 2.7 34.8 -0.6 24.8 2.3 16.3 Z" />
<path class="menu2path" fill="#252530" stroke="#252530" stroke-width="0.09375" opacity="1.00" d=" M 18.3 3.4 C 22.7 2.6 27.4 2.6 31.4 4.5 C 38.1 7.7 43.0 14.5 43.0 22.0 C 43.7 30.8 37.5 39.4 29.0 41.9 C 21.7 44.4 13.1 41.8 8.1 36.0 C 3.9 31.3 2.1 24.5 3.6 18.4 C 5.1 11.2 11.1 5.0 18.3 3.4 Z" />
<path class="menu1path" fill="#9999ff" stroke="#9999ff" stroke-width="0.09375" opacity="1.00" d=" M 11.7 12.8 C 19.3 12.7 26.9 12.5 34.5 13.0 C 34.7 18.0 34.6 23.0 34.6 28.1 C 27.0 29.0 19.3 28.4 11.7 28.4 C 11.5 23.2 11.5 18.0 11.7 12.8 Z" />
<path class="menu2path" fill="#252530" stroke="#252530" stroke-width="0.09375" opacity="1.00" d=" M 13.4 14.5 C 19.8 14.5 26.3 14.5 32.7 14.5 C 32.9 18.5 32.9 22.6 32.7 26.6 C 26.3 26.7 19.8 26.7 13.4 26.6 C 13.3 22.6 13.3 18.5 13.4 14.5 Z" />
<path class="menu1path" fill="#9999ff" stroke="#9999ff" stroke-width="0.09375" opacity="1.00" d=" M 18.0 32.7 C 19.0 31.7 20.0 30.6 21.0 29.6 C 22.4 29.5 23.8 29.4 25.1 29.4 C 26.1 30.5 27.1 31.6 28.1 32.7 C 24.7 32.7 21.4 32.7 18.0 32.7 Z" />
</svg>
