<?xml version="1.0" encoding="UTF-8"?>
<!DOCTYPE svg PUBLIC "-//W3C//DTD SVG 1.1//EN" "http://www.w3.org/Graphics/SVG/1.1/DTD/svg11.dtd">
<!-- Creator: CorelDRAW X7 -->
<svg xmlns="http://www.w3.org/2000/svg" xml:space="preserve" width="89.035mm" height="29.3838mm" version="1.1" style="shape-rendering:geometricPrecision; text-rendering:geometricPrecision; image-rendering:optimizeQuality; fill-rule:evenodd; clip-rule:evenodd"
viewBox="0 0 2856 943"
 xmlns:xlink="http://www.w3.org/1999/xlink">
 <defs>
  <style type="text/css">
   <![CDATA[
    .fil1 {fill:black}
    .fil0 {fill:#94BE39}
   ]]>
  </style>
 </defs>
 <g id="Layer_x0020_1">
  <metadata id="CorelCorpID_0Corel-Layer"/>
  <g id="_835356816">
   <path class="fil0" d="M2023 858c-139,-51 -307,3 -457,31 -150,28 -229,26 -370,-11 -2,5 93,45 213,60 72,9 153,5 228,-13 20,-4 41,-10 62,-16 106,-29 229,-68 324,-51l0 0zm-415 -275c-234,62 -393,58 -620,-5 196,102 415,103 613,70 105,-18 203,-47 305,-74 48,-12 94,-23 126,-30 74,-21 228,-48 305,-50 38,-1 119,-6 156,2 -186,-50 -390,-29 -583,10 -105,22 -200,50 -302,77l0 0zm-172 157c-188,17 -439,-25 -617,-82 314,203 743,183 1076,96 535,-140 610,-185 961,-103 -193,-88 -429,-89 -636,-63 -264,35 -523,128 -784,152z"/>
   <path class="fil1" d="M1294 8l75 0 23 0 0 413 -98 0 0 -234 -101 242 -101 -242 0 234 -98 0 0 -413 23 0 75 0 23 0 78 193 79 -193 22 0 0 0zm667 413l0 -123c-32,35 -78,39 -115,20 -84,-43 -87,-164 4,-206 38,-17 83,-13 114,22l-2 -124c-134,-42 -287,57 -285,202 1,134 127,257 284,209l0 0zm-1756 -413l60 0 42 0 60 0 0 413 -102 0 0 -89 -119 0 -44 89 -102 0 205 -413 0 0zm60 241l0 -155 -77 155 77 0zm143 172l220 0 1 -89 -120 0 0 -80 110 0 0 -83 -110 0 0 -71 119 0 0 -90 -220 0 0 413 0 0zm257 -412l39 0 0 -1 122 0c71,0 128,57 128,126l0 0c0,54 -34,100 -82,118l168 271 -104 0 -173 -279 0 177 -98 0 0 -412 0 0zm98 87l0 76 46 0c21,0 39,-17 39,-38l0 0c0,-21 -18,-38 -39,-38l-46 0zm667 325l221 0 1 -89 -120 0 0 -80 110 0 0 -83 -110 0 0 -71 119 0 0 -90 -221 0 0 413 0 0z"/>
  </g>
 </g>
</svg>
